<svg xmlns="http://www.w3.org/2000/svg" width="16" height="16" viewBox="0 0 16 16">
  <path id="wp-check" d="M8,.5A7.71,7.71,0,0,0,3.98,1.593,7.988,7.988,0,0,0,1.054,4.48,7.915,7.915,0,0,0,0,8.5a7.925,7.925,0,0,0,1.054,4.02A8.3,8.3,0,0,0,3.98,15.446,7.915,7.915,0,0,0,8,16.5a7.925,7.925,0,0,0,4.02-1.054,7.986,7.986,0,0,0,2.887-2.926A7.709,7.709,0,0,0,16,8.5a7.709,7.709,0,0,0-1.093-4.02A7.693,7.693,0,0,0,12.02,1.593,7.71,7.71,0,0,0,8,.5ZM7.376,13.144H6.049L2.809,8.617,4.137,7.368l2.575,2.42,5.151-5.932,1.327.937-5.814,8.35Z" transform="translate(0 -0.5)"/>
</svg>
