<svg xmlns="http://www.w3.org/2000/svg" width="16" height="16" viewBox="0 0 16 16">
  <path id="wp-cross" d="M8,.5a7.71,7.71,0,0,1,4.02,1.093A7.693,7.693,0,0,1,14.907,4.48,7.709,7.709,0,0,1,16,8.5a7.709,7.709,0,0,1-1.093,4.02,7.986,7.986,0,0,1-2.887,2.926A7.917,7.917,0,0,1,8,16.5a7.925,7.925,0,0,1-4.02-1.054A8.3,8.3,0,0,1,1.054,12.52,7.917,7.917,0,0,1,0,8.5,7.925,7.925,0,0,1,1.054,4.48,7.988,7.988,0,0,1,3.98,1.593,7.71,7.71,0,0,1,8,.5Zm4.995,11.005L9.99,8.5l3.005-3.005L11.005,3.5,8,6.51,4.995,3.505,3,5.495,6.01,8.5,3.005,11.505l1.99,1.99L8,10.49l3.005,3.005Z" transform="translate(0 -0.5)"/>
</svg>
