<svg xmlns="http://www.w3.org/2000/svg" width="130.198" height="102.889" viewBox="0 0 130.198 102.889">
  <g id="Layer_2" data-name="Layer 2" transform="translate(0 0)">
    <g id="Layer_1" data-name="Layer 1">
      <path id="Path_1" data-name="Path 1" d="M109.1,1.4H77.9a7.55,7.55,0,0,0-7.5,7.5V40a11.47,11.47,0,0,1-22.9.9V13.2a6.91,6.91,0,0,0-6.9-6.9H35.2V41a11.47,11.47,0,0,1-22.9-1v-.1h0V6.9A6.94,6.94,0,0,0,5.3,0H0V39.9H0V40A23.66,23.66,0,0,0,41.3,55.8,23.72,23.72,0,0,0,82.6,40V17.3h0a3.46,3.46,0,0,1,3.7-3.7h22.8a8.7,8.7,0,0,1,0,17.4H96a6.91,6.91,0,0,0-6.9,6.9v5.3h20.1a20.9,20.9,0,1,0-.1-41.8Z" fill="#1aacc6"/>
      <path id="Path_2" data-name="Path 2" d="M79.3,35a31.429,31.429,0,0,1,3.3-2.66v-15a3.46,3.46,0,0,1,3.7-3.7h22.8A8.7,8.7,0,0,1,113.22,30a35.86,35.86,0,0,1,8.91,8.76,20.85,20.85,0,0,0-13-37.32H77.9a7.55,7.55,0,0,0-7.5,7.5V40a11.55,11.55,0,0,1-.15,1.78A38.89,38.89,0,0,0,79.3,35Z" fill="#154c69"/>
      <path id="Path_3" data-name="Path 3" d="M48.84,45.48A11.17,11.17,0,0,1,47.5,40.9V13.2a6.91,6.91,0,0,0-6.9-6.9H35.2V39.22a34.75,34.75,0,0,0,13.64,6.26Z" fill="#154c69"/>
      <path id="Path_4" data-name="Path 4" d="M12.3,26.9V6.9A6.94,6.94,0,0,0,5.3,0H0V27a32.64,32.64,0,0,1,12.3-.1Z" fill="#154c69"/>
      <path id="Path_5" data-name="Path 5" d="M24.58,88a7.38,7.38,0,0,1,1.73,5.26v9.45H23.62V93.46a5.26,5.26,0,0,0-1.18-3.68,4.14,4.14,0,0,0-3.21-1.27,4.41,4.41,0,0,0-3.42,1.41,5.89,5.89,0,0,0-1.29,4.13v8.62h-2.7V93.46a5.22,5.22,0,0,0-1.18-3.68,4.16,4.16,0,0,0-3.2-1.27A4.42,4.42,0,0,0,4,89.92a5.89,5.89,0,0,0-1.3,4.13v8.62H0V86.4H2.7v3.71a5.23,5.23,0,0,1,2.12-3,6.14,6.14,0,0,1,3.51-1,6.21,6.21,0,0,1,3.6,1,5.71,5.71,0,0,1,2.17,3.1,5.88,5.88,0,0,1,2.29-3.07,6.29,6.29,0,0,1,3.61-1A6,6,0,0,1,24.58,88Z" fill="#154c69"/>
      <path id="Path_6" data-name="Path 6" d="M42.65,87.38A6.15,6.15,0,0,1,45,90.55V86.4h2.7v16.27H45V98.52a6.11,6.11,0,0,1-2.3,3.17,6.66,6.66,0,0,1-4,1.19,7.37,7.37,0,0,1-3.85-1A7,7,0,0,1,32.13,99a10.72,10.72,0,0,1,0-8.87,7,7,0,0,1,2.66-2.91,7.37,7.37,0,0,1,3.85-1,6.65,6.65,0,0,1,4.01,1.16Zm-7.23,2.8a7.15,7.15,0,0,0,0,8.74,5.23,5.23,0,0,0,4,1.59,5.56,5.56,0,0,0,2.86-.74,5.23,5.23,0,0,0,2-2.09A6.66,6.66,0,0,0,45,94.55a6.76,6.76,0,0,0-.71-3.14,5.1,5.1,0,0,0-2-2.09,5.65,5.65,0,0,0-2.86-.72,5.26,5.26,0,0,0-4.01,1.58Z" fill="#154c69"/>
      <path id="Path_7" data-name="Path 7" d="M63,87.63a6.06,6.06,0,0,1,2,3.87H62.4a3.77,3.77,0,0,0-1.2-2.39,3.9,3.9,0,0,0-2.74-.93,3.32,3.32,0,0,0-2.26.7,2.32,2.32,0,0,0-.82,1.88,1.94,1.94,0,0,0,.55,1.44,3.58,3.58,0,0,0,1.36.83c.55.18,1.29.39,2.24.6a22.08,22.08,0,0,1,2.92.85,4.42,4.42,0,0,1,1.89,1.38,3.82,3.82,0,0,1,.79,2.54,4,4,0,0,1-1.5,3.23,6,6,0,0,1-4,1.25,7.67,7.67,0,0,1-4.74-1.39,5.57,5.57,0,0,1-2.17-3.88h2.61A3.39,3.39,0,0,0,56.64,100a4.6,4.6,0,0,0,3,.92,3.07,3.07,0,0,0,2.17-.71,2.36,2.36,0,0,0,.79-1.86,2.08,2.08,0,0,0-.56-1.52A3.7,3.7,0,0,0,60.66,96a20.7,20.7,0,0,0-2.29-.63,21,21,0,0,1-2.89-.83,4.27,4.27,0,0,1-1.83-1.32,3.64,3.64,0,0,1-.76-2.44,4.08,4.08,0,0,1,1.51-3.3,6.24,6.24,0,0,1,4.12-1.26A6.61,6.61,0,0,1,63,87.63Z" fill="#154c69"/>
      <path id="Path_8" data-name="Path 8" d="M78,100.3v2.37H76a5.18,5.18,0,0,1-3.72-1.18,5.36,5.36,0,0,1-1.22-4V88.74H68.59V86.4H71V82.35h2.72V86.4H78v2.34H73.75v8.84a3,3,0,0,0,.58,2.14,2.75,2.75,0,0,0,2,.58Z" fill="#154c69"/>
      <path id="Path_9" data-name="Path 9" d="M97.6,95.12h-13a5.69,5.69,0,0,0,1.59,4.17,5.18,5.18,0,0,0,3.66,1.4,5.24,5.24,0,0,0,3.27-1A4.1,4.1,0,0,0,94.73,97H97.6a6.59,6.59,0,0,1-1.32,3,6.86,6.86,0,0,1-2.65,2.08,8.81,8.81,0,0,1-3.67.74,8.39,8.39,0,0,1-4.15-1A7,7,0,0,1,83,99a10.15,10.15,0,0,1,0-8.87,7.09,7.09,0,0,1,2.83-2.91,8.39,8.39,0,0,1,4.15-1,8.18,8.18,0,0,1,4.13,1,6.94,6.94,0,0,1,2.7,2.7,7.62,7.62,0,0,1,.93,3.73A8,8,0,0,1,97.6,95.12Zm-3.2-4.33A4.33,4.33,0,0,0,92.54,89,5.75,5.75,0,0,0,90,88.39a5.35,5.35,0,0,0-3.74,1.38,5.57,5.57,0,0,0-1.63,4H95A5.57,5.57,0,0,0,94.4,90.79Z" fill="#154c69"/>
      <path id="Path_10" data-name="Path 10" d="M107.77,87.07a7,7,0,0,1,3.67-.93v2.93h-.83a5.74,5.74,0,0,0-3.73,1.17,4.69,4.69,0,0,0-1.46,3.87v8.56h-2.69V86.4h2.69v3.29a6,6,0,0,1,2.35-2.62Z" fill="#154c69"/>
      <path id="Path_11" data-name="Path 11" d="M125.11,87.63a6,6,0,0,1,2,3.87h-2.57a3.77,3.77,0,0,0-1.2-2.39,3.94,3.94,0,0,0-2.74-.93,3.35,3.35,0,0,0-2.27.7,2.32,2.32,0,0,0-.82,1.88,2,2,0,0,0,.55,1.44,3.66,3.66,0,0,0,1.36.83c.55.18,1.29.39,2.24.6a21.629,21.629,0,0,1,2.92.85,4.51,4.51,0,0,1,1.9,1.38,3.87,3.87,0,0,1,.78,2.54,4,4,0,0,1-1.49,3.23,6,6,0,0,1-4,1.25,7.67,7.67,0,0,1-4.74-1.39,5.53,5.53,0,0,1-2.16-3.88h2.6A3.39,3.39,0,0,0,118.8,100a4.62,4.62,0,0,0,3,.92,3.11,3.11,0,0,0,2.18-.71,2.39,2.39,0,0,0,.78-1.86,2,2,0,0,0-.56-1.52,3.7,3.7,0,0,0-1.39-.85,20.422,20.422,0,0,0-2.28-.63,20.551,20.551,0,0,1-2.89-.83,4.3,4.3,0,0,1-1.84-1.32,3.69,3.69,0,0,1-.75-2.44,4.08,4.08,0,0,1,1.51-3.3,6.21,6.21,0,0,1,4.11-1.26A6.59,6.59,0,0,1,125.11,87.63Z" fill="#154c69"/>
    </g>
  </g>
</svg>
